PathFileType	4	(X/Y/Z)	C:\Users\Basilio\Documents\Thesis Gigler\squatting_fais\c3dfiles\041\SLS_pre_back5\markers_experimental.trc
DataRate	CameraRate	NumFrames	NumMarkers	Units	OrigDataRate	OrigDataStartFrame	OrigNumFrames
200.000000	200.000000	4	64	mm	200.000000	845	1353
Frame#	Time	FHD			LBHD			RBHD			C7			T10			CLAV			LSHO			LUUPA			LMUPA			LDUPA			LLEP			LMEP			LRAD			LUL			LRFIN			RSHO			RUPA1			RMUPA			RDUPA			RLEP			RMEP			RRAD			RUL			RUFIN			LASI			RASI			USACR			LSACR			RSACR			LTHI1			LTHI2			LTHI3			LTHI4			LLFC			LMFC			LTIB1			LTIB2			LTIB3			LTIB4			LLMAL			LMMAL			LHEE			LMT1			LMT2			LMT5			RTHI			RTHI2			RTHI3			RTHI4			RLFC			RMFC			RTIB1			RTIB2			RTIB3			RTIB4			RLMAL			RMMAL			RHEE			RMT1			RMT2			RMT5			*61			*62			*63			
		X1	Y1	Z1	X2	Y2	Z2	X3	Y3	Z3	X4	Y4	Z4	X5	Y5	Z5	X6	Y6	Z6	X7	Y7	Z7	X8	Y8	Z8	X9	Y9	Z9	X10	Y10	Z10	X11	Y11	Z11	X12	Y12	Z12	X13	Y13	Z13	X14	Y14	Z14	X15	Y15	Z15	X16	Y16	Z16	X17	Y17	Z17	X18	Y18	Z18	X19	Y19	Z19	X20	Y20	Z20	X21	Y21	Z21	X22	Y22	Z22	X23	Y23	Z23	X24	Y24	Z24	X25	Y25	Z25	X26	Y26	Z26	X27	Y27	Z27	X28	Y28	Z28	X29	Y29	Z29	X30	Y30	Z30	X31	Y31	Z31	X32	Y32	Z32	X33	Y33	Z33	X34	Y34	Z34	X35	Y35	Z35	X36	Y36	Z36	X37	Y37	Z37	X38	Y38	Z38	X39	Y39	Z39	X40	Y40	Z40	X41	Y41	Z41	X42	Y42	Z42	X43	Y43	Z43	X44	Y44	Z44	X45	Y45	Z45	X46	Y46	Z46	X47	Y47	Z47	X48	Y48	Z48	X49	Y49	Z49	X50	Y50	Z50	X51	Y51	Z51	X52	Y52	Z52	X53	Y53	Z53	X54	Y54	Z54	X55	Y55	Z55	X56	Y56	Z56	X57	Y57	Z57	X58	Y58	Z58	X59	Y59	Z59	X60	Y60	Z60	X61	Y61	Z61	X62	Y62	Z62	X63	Y63	Z63	X64	Y64	Z64	

846	4.225	-17.97889518737793	1398.979858398438	-1234.07373046875	-210.2025451660157	1358.091430664063	-1287.894165039063	-175.5919647216797	1375.078857421875	-1138.942626953125	-270.9485778808594	1271.79150390625	-1179.98583984375	-435.2311096191407	1049.456665039063	-1040.242919921875	-153.6283874511719	1150.604370117188	-1186.850708007813	-222.3200073242188	1236.051635742188	-1319.991088867188	-179.7376556396485	1206.5634765625	-1476.468383789063	-132.4096984863282	1215.825317382813	-1478.004638671875	-143.7904510498047	1192.565307617188	-1534.22802734375	-112.9850234985352	1180.5517578125	-1566.969848632813	-60.60708236694337	1116.711303710938	-1537.861083984375	110.1543502807617	1166.100708007813	-1729.4970703125	55.16746520996095	1173.644653320313	-1773.9912109375	153.577880859375	1214.456420898438	-1769.096069335938	-154.5661163330078	1278.665283203125	-1085.056396484375	-21.11583328247071	1289.091064453125	-953.261901855469	2.872158765792847	1301.588012695313	-996.3474731445315	48.2419776916504	1299.45849609375	-956.8376464843752	92.94026184082033	1296.458251953125	-954.0826416015627	104.7945404052735	1211.520263671875	-961.8889770507815	358.1956481933594	1270.576416015625	-999.8261718750002	353.9037170410157	1296.447509765625	-928.9351196289065	439.0794982910157	1283.958862304688	-1003.683349609375	-380.2372741699219	822.5364379882815	-1137.509521484375	-366.7112731933594	804.4222412109377	-915.2991333007815	-506.740203857422	953.4255981445315	-1009.750183105469	-536.2712402343751	938.5911865234377	-1035.688354492188	-527.8948974609376	931.7047119140627	-980.8094482421877	-420.5642395019532	676.5872192382814	-1195.089965820313	-338.8329162597657	650.7723999023439	-1190.87890625	-307.2783813476563	683.7774658203126	-1183.22265625	-319.7128906250001	592.2718505859376	-1180.24755859375	-189.9746856689453	484.4343872070314	-1155.211669921875	-187.730453491211	475.8182373046876	-1041.7080078125	-217.0178375244141	303.7130126953126	-1089.271362304688	-275.6262512207032	277.9923095703126	-1152.978759765625	-242.8263397216797	262.2108459472657	-1125.251586914063	-277.1694641113282	194.2372436523438	-1088.96826171875	-366.3211059570313	124.3872680664063	-1133.190063476563	-333.6955566406251	134.0460815429688	-1047.40576171875	-439.6593017578126	110.1734466552735	-1095.135620117188	-237.0014648437501	62.29883575439455	-1052.261840820313	-225.6334991455079	57.60573577880861	-1096.721801757813	-269.2590026855469	40.84630203247071	-1153.104736328125	-461.8461914062501	570.4941406250001	-835.2510986328127	-415.5791931152345	521.4397583007814	-837.8142089843752	-384.9961242675782	525.9760742187501	-850.6001586914065	-435.9915161132814	438.9595336914064	-849.7252197265627	-435.8986206054689	357.8201904296876	-857.3320312500002	-458.1764526367189	331.7460632324219	-968.219177246094	-583.2164916992189	296.0368347167969	-856.0098876953127	-662.4367065429689	376.3637695312501	-834.908874511719	-661.8110351562501	329.5882568359376	-836.704284667969	-710.2047119140626	304.9183654785157	-861.7435302734377	-831.3001708984377	353.8295593261719	-835.8869628906252	-812.3814086914065	331.9345703125001	-917.1271972656252	-867.551940917969	414.966766357422	-881.4529418945315	-878.7282714843752	201.4615936279297	-919.1858520507815	-877.4214477539065	189.2212066650391	-866.005554199219	-904.1051025390627	228.1236114501954	-817.3906250000002	-4217.167480468751	853.1228027343752	-3944.697753906251	nan	nan	nan	nan	nan	nan	
847	4.23	-17.72854804992676	1399.338989257813	-1233.11669921875	-209.9595489501954	1358.743774414063	-1287.1943359375	-175.6495208740235	1375.562255859375	-1138.204467773438	-270.7186279296876	1272.243530273438	-1179.411865234375	-435.321014404297	1049.629272460938	-1040.383666992188	-153.6298217773438	1151.152954101563	-1186.341796875	-221.9003601074219	1236.670776367188	-1319.423461914063	-179.2392730712891	1207.138671875	-1475.89501953125	-131.4777374267578	1216.19775390625	-1477.226196289063	-143.1258239746094	1193.178955078125	-1533.638793945313	-112.4796295166016	1181.12109375	-1566.15625	-60.07683563232423	1117.093017578125	-1537.115356445313	111.2112731933594	1166.440551757813	-1728.435668945313	56.24967193603517	1173.881469726563	-1773.145385742188	154.333480834961	1214.734252929688	-1768.189819335938	-154.3055419921875	1279.04296875	-1084.3720703125	-21.39468765258789	1289.394165039063	-952.2473144531252	2.887036085128785	1301.908935546875	-995.412780761719	47.83177566528321	1299.812377929688	-955.7069091796877	92.74712371826173	1296.632568359375	-952.825134277344	104.7674560546875	1211.5068359375	-960.8568115234377	358.4558715820313	1270.699462890625	-998.2904052734377	353.7200012207032	1296.813232421875	-927.4965820312502	438.7667541503907	1284.41357421875	-1002.356079101563	-380.1670227050782	822.6148681640627	-1137.613403320313	-366.8114318847657	804.5888671875002	-915.399353027344	-506.7876281738282	953.550231933594	-1010.018493652344	-536.2646484375001	938.699890136719	-1035.978271484375	-527.9792480468751	931.8497314453127	-981.0557861328127	-420.2221069335939	676.6657104492189	-1195.215209960938	-338.5627136230469	650.8520507812501	-1190.85205078125	-306.8689270019532	683.7133178710939	-1183.12939453125	-319.4250793457032	592.3698730468751	-1180.176879882813	-189.7468566894532	484.4478454589845	-1154.878540039063	-187.8638610839844	475.8596801757814	-1041.3447265625	-216.9985809326172	303.7015991210938	-1089.114868164063	-275.5430603027344	278.0073852539063	-1152.706787109375	-242.7373962402344	262.3818664550782	-1124.937866210938	-277.1872863769532	194.2518768310547	-1088.7392578125	-366.3265075683594	124.4031372070313	-1133.17919921875	-333.7348632812501	133.976806640625	-1047.396362304688	-439.5870971679689	110.0949859619141	-1095.206298828125	-236.9909820556641	62.29638290405275	-1052.266479492188	-225.6181030273438	57.62734603881837	-1096.731201171875	-269.2471313476563	40.84921264648438	-1153.099487304688	-461.9220581054689	570.6564941406251	-835.4505615234377	-415.6572265625001	521.6557006835939	-837.893005371094	-385.020233154297	526.2421875000001	-850.5134277343752	-435.9942932128907	439.0698852539064	-849.7932739257815	-435.8118286132814	358.0127258300782	-857.2963867187502	-457.7071533203126	331.9700012207032	-968.4180297851565	-582.7988281250001	296.6802978515626	-857.1911621093752	-662.4068603515626	376.2188110351563	-835.6008300781252	-661.6256103515626	329.4762573242188	-837.5747070312502	-710.0458374023439	305.0499267578126	-862.7117919921877	-831.3960571289065	353.6821289062501	-837.0014648437502	-812.1248779296877	331.7983703613282	-918.3876953125002	-867.4085693359377	414.6285400390626	-883.0286865234377	-877.9537353515627	201.7629547119141	-920.7114868164065	-876.7442016601565	188.5981140136719	-866.9992675781252	-903.8334960937502	227.5339355468751	-819.0667114257815	-4216.568359375001	853.2667236328127	-3945.266357421876	nan	nan	nan	nan	nan	nan	
848	4.235	-17.02983665466309	1399.9658203125	-1232.178466796875	-209.5633850097657	1359.35498046875	-1286.312866210938	-175.4321746826172	1376.094360351563	-1137.408447265625	-270.2456054687501	1272.559448242188	-1178.776611328125	-435.3797912597657	1049.802490234375	-1040.509887695313	-153.473373413086	1151.733154296875	-1185.7919921875	-221.6204528808594	1237.1875	-1318.9189453125	-178.6719818115235	1207.696166992188	-1475.381958007813	-130.9488372802735	1216.746704101563	-1476.55615234375	-142.6658325195313	1193.754638671875	-1532.967163085938	-112.0548400878907	1181.733276367188	-1565.494018554688	-59.76892089843751	1117.510131835938	-1536.359741210938	112.0252075195313	1166.683227539063	-1727.563842773438	56.86905670166017	1174.393798828125	-1772.248901367188	155.1923370361328	1214.908203125	-1767.173583984375	-154.7558288574219	1279.397583007813	-1083.550415039063	-21.52191734313965	1289.531616210938	-951.2527465820315	2.649452447891236	1302.122680664063	-994.3035888671877	47.68818283081055	1299.926879882813	-954.6400146484377	92.73724365234376	1296.830688476563	-951.6942138671877	104.6017684936524	1211.78955078125	-960.1001586914065	358.2344970703126	1271.043823242188	-996.7904052734377	353.2302246093751	1297.15380859375	-925.8421630859377	438.1725463867189	1284.928344726563	-1000.897644042969	-379.8064270019532	823.073669433594	-1137.736938476563	-366.9346923828126	804.8425292968752	-915.5294189453127	-506.9428100585939	953.7578125000002	-1010.307678222656	-536.2539672851564	938.808288574219	-1036.345092773438	-528.0919189453126	931.9396972656252	-981.3782348632815	-419.8177185058595	676.7910766601564	-1195.314331054688	-338.3360290527344	650.8779907226564	-1190.883056640625	-306.5636291503907	683.7957153320314	-1183.076538085938	-319.1197814941407	592.4357910156251	-1180.161499023438	-189.5584869384766	484.4250488281251	-1154.546752929688	-187.8699798583985	475.8958129882814	-1040.9951171875	-216.9362792968751	303.7031250000001	-1088.908203125	-275.5365600585938	278.0307922363282	-1152.529541015625	-242.6929473876954	262.2326965332032	-1124.874877929688	-277.1577453613282	194.1624298095704	-1088.683227539063	-366.2845458984376	124.4010086059571	-1133.176147460938	-333.7266235351563	133.9883728027344	-1047.391479492188	-439.6292724609376	110.1306304931641	-1095.231567382813	-237.0274963378907	62.34146881103517	-1052.26611328125	-225.6373748779297	57.5972137451172	-1096.669799804688	-269.2661437988282	40.86569213867188	-1153.104614257813	-462.0171203613282	570.8804321289064	-835.5945434570315	-415.6304626464845	521.9451293945314	-838.0015258789065	-385.1319885253907	526.7799682617189	-850.223815917969	-435.9094848632814	439.4094238281251	-849.7900390625002	-435.7402954101564	358.3317871093751	-857.256774902344	-457.0832519531251	332.1093139648438	-968.5708007812502	-582.5881347656251	296.6890869140626	-857.7952270507815	-662.3421020507814	376.1287536621094	-836.4544677734377	-661.6115112304689	329.4714660644532	-838.113952636719	-709.6384887695314	305.1286315917969	-864.1440429687502	-831.5481567382815	353.4031066894532	-838.2247314453127	-811.6865234375002	331.6325683593751	-919.6462402343752	-867.2364501953127	414.277313232422	-884.3801269531252	-878.0294189453127	201.9031982421876	-922.4506835937502	-876.2906494140627	188.6155548095703	-868.7805175781252	-903.3406372070315	227.3352355957032	-820.824890136719	-4216.959960937501	853.0982666015627	-3944.750976562501	nan	nan	nan	nan	nan	nan	
849	4.24	-17.22769927978516	1400.416015625	-1231.512817382813	-209.4490966796876	1360.037109375	-1285.7548828125	-175.0458679199219	1376.658569335938	-1136.718627929688	-269.9696960449219	1272.952514648438	-1178.062377929688	-435.4583435058595	1049.981323242188	-1040.67578125	-153.4212799072266	1152.231079101563	-1185.234985351563	-221.4837799072266	1237.73583984375	-1318.300170898438	-178.1190643310547	1208.210815429688	-1474.717041015625	-130.7943725585938	1217.328125	-1476.03564453125	-142.2568054199219	1194.363159179688	-1532.237915039063	-111.317626953125	1182.19775390625	-1564.822509765625	-59.30129623413087	1117.927001953125	-1535.695922851563	112.8384170532227	1166.82421875	-1726.566284179688	57.70737457275392	1174.658813476563	-1771.364379882813	156.1135559082032	1215.0654296875	-1766.206787109375	-154.7132568359375	1279.881591796875	-1082.708251953125	-21.61735153198243	1289.697509765625	-950.2723388671877	2.349166631698609	1302.302124023438	-993.1875000000002	47.67697143554688	1300.338500976563	-953.749938964844	92.08058929443361	1297.019775390625	-950.261169433594	104.4218292236328	1211.984985351563	-958.4183349609377	357.9654235839844	1271.47412109375	-995.4284667968752	353.1820373535157	1297.527709960938	-924.6755371093752	438.3220214843751	1285.578002929688	-999.731140136719	-379.4701538085938	823.5213012695315	-1137.849243164063	-366.9838867187501	805.0739746093752	-915.6467895507815	-506.9450073242189	953.8553466796877	-1010.594177246094	-536.2830810546876	938.967468261719	-1036.764892578125	-528.3923339843751	932.041931152344	-981.545837402344	-419.4817810058595	676.8373413085939	-1195.389770507813	-337.9425659179688	650.8972167968751	-1190.9169921875	-306.2772216796876	683.7774047851564	-1182.984985351563	-318.9428405761719	592.4287109375001	-1180.02392578125	-189.5294036865235	484.4415283203126	-1154.295532226563	-188.0108032226563	475.8547973632814	-1040.527465820313	-216.8710937500001	303.7151184082032	-1088.720947265625	-275.2524414062501	278.0700988769532	-1152.445678710938	-242.5932159423829	262.2376708984376	-1124.657836914063	-277.1046752929688	194.1196289062501	-1088.587646484375	-366.3175659179688	124.4316024780274	-1133.185668945313	-333.7447509765626	133.9420928955078	-1047.376586914063	-439.6633605957032	110.1738510131836	-1095.207641601563	-237.0235137939454	62.29677963256837	-1052.217651367188	-225.6025390625001	57.65989685058595	-1096.658203125	-269.2409057617188	40.86469268798829	-1153.082275390625	-462.0829162597657	571.0979003906251	-835.8269653320315	-415.6993408203126	522.2816162109376	-837.9196777343752	-385.2299194335939	527.1909790039064	-849.970153808594	-435.7808837890626	439.7699279785157	-849.871276855469	-435.6031799316407	358.6109924316407	-857.3482666015627	-456.4467773437501	332.3236083984376	-968.7418212890627	-582.1372680664064	297.2795410156251	-858.0096435546877	-662.2611083984376	376.1749877929688	-837.2461547851565	-661.5803222656251	329.5350036621094	-838.933776855469	-709.4912719726564	305.1121215820313	-864.6314086914065	-831.101013183594	353.1499328613282	-839.9396972656252	-811.3031005859377	331.4203491210938	-920.984069824219	-867.3421630859377	414.1817016601564	-885.7243652343752	-875.5374145507815	201.6326141357422	-923.4185791015627	-875.5581054687502	187.9965057373047	-870.319519042969	-903.3284912109377	226.757308959961	-822.1093750000002	-4216.769042968751	853.088806152344	-3944.737792968751	nan	nan	nan	nan	nan	nan	
